<svg width="451" height="275" viewBox="0 0 451 275" fill="none" xmlns="http://www.w3.org/2000/svg">
<path fill-rule="evenodd" clip-rule="evenodd" d="M313.076 275C389.015 275 450.576 213.439 450.576 137.5C450.576 61.5608 389.015 0 313.076 0C279.7 0 249.101 11.8921 225.285 31.6702C216.041 24.0016 205.771 17.5274 194.703 12.4637C166.654 -0.367961 135.107 -3.39655 105.13 3.86476C75.1525 11.1261 48.4874 28.2555 29.4203 52.4999C10.3531 76.7443 -0.00882976 106.695 3.11324e-05 137.539C0.00889202 168.383 10.388 198.329 29.4691 222.562C48.5502 246.795 75.2251 263.91 105.206 271.154C135.187 278.398 166.734 275.351 194.774 262.503C205.816 257.444 216.061 250.981 225.285 243.33C249.101 263.108 279.7 275 313.076 275ZM190.76 74.6286C199.288 58.0702 211.08 43.4673 225.285 31.6702C239.467 43.4343 251.237 58.0091 259.776 74.614L210.775 99.815C205.789 90.1207 198.967 81.581 190.76 74.6286ZM190.76 200.371C185.064 205.197 178.701 209.258 171.822 212.409C155.018 220.108 136.114 221.934 118.148 217.593C100.181 213.252 84.196 202.996 72.7615 188.474C61.327 173.952 55.1072 156.007 55.1019 137.524C55.0966 119.04 61.3061 101.092 72.7322 86.563C84.1584 72.0343 100.138 61.7693 118.102 57.4179C136.066 53.0665 154.971 54.8815 171.779 62.571C178.674 65.7253 185.052 69.793 190.76 74.6286C181.055 93.471 175.577 114.846 175.577 137.5C175.577 160.154 181.055 181.529 190.76 200.371ZM259.651 200.233L210.797 175.143C205.809 184.854 198.979 193.408 190.76 200.371C199.288 216.93 211.08 231.532 225.285 243.33C239.477 231.557 251.252 216.971 259.793 200.353C274.159 212.544 292.759 219.898 313.076 219.898C358.583 219.898 395.474 183.007 395.474 137.5C395.474 91.9927 358.583 55.1019 313.076 55.1019C267.569 55.1019 230.678 91.9927 230.678 137.5C230.678 162.622 241.922 185.119 259.651 200.233ZM259.651 200.233L259.812 200.316C259.806 200.328 259.8 200.341 259.793 200.353C259.746 200.313 259.698 200.273 259.651 200.233Z" fill="#343BE5"/>
</svg>
