<svg width="80" height="80" viewBox="0 0 80 80" fill="none" xmlns="http://www.w3.org/2000/svg">
<mask id="mask0_825_1100" style="mask-type:alpha" maskUnits="userSpaceOnUse" x="0" y="0" width="80" height="80">
<rect width="80" height="80" fill="#D9D9D9"/>
</mask>
<g mask="url(#mask0_825_1100)">
<path d="M6.53328 81.5704C5.58884 81.5704 4.79717 81.1702 4.15828 80.3698C3.5194 79.5694 3.19995 78.5775 3.19995 77.3943C3.19995 76.2111 3.5194 75.2192 4.15828 74.4188C4.79717 73.6184 5.58884 73.2182 6.53328 73.2182H73.1999C74.1444 73.2182 74.9361 73.6184 75.5749 74.4188C76.2138 75.2192 76.5333 76.2111 76.5333 77.3943C76.5333 78.5775 76.2138 79.5694 75.5749 80.3698C74.9361 81.1702 74.1444 81.5704 73.1999 81.5704H6.53328ZM13.2 69.042C11.3666 69.042 9.79717 68.2242 8.49162 66.5885C7.18606 64.9529 6.53328 62.9866 6.53328 60.6897V14.7522C6.53328 12.4553 7.18606 10.489 8.49162 8.85339C9.79717 7.21773 11.3666 6.3999 13.2 6.3999H66.5333C68.3666 6.3999 69.9361 7.21773 71.2416 8.85339C72.5472 10.489 73.1999 12.4553 73.1999 14.7522V60.6897C73.1999 62.9866 72.5472 64.9529 71.2416 66.5885C69.9361 68.2242 68.3666 69.042 66.5333 69.042H13.2ZM13.2 60.6897H66.5333V14.7522H13.2V60.6897Z" fill="#FAFAFA"/>
</g>
</svg>
