<svg width="308" height="308" viewBox="0 0 308 308" fill="none" xmlns="http://www.w3.org/2000/svg">
<path d="M235 154C235 198.735 198.735 235 154 235C109.265 235 73 198.735 73 154C73 109.265 109.265 73 154 73C198.735 73 235 109.265 235 154ZM112.407 154C112.407 176.971 131.029 195.593 154 195.593C176.971 195.593 195.593 176.971 195.593 154C195.593 131.029 176.971 112.407 154 112.407C131.029 112.407 112.407 131.029 112.407 154Z" fill="#FF4588"/>
<path d="M290.99 224.354C275.209 255.083 249.553 279.614 218.148 294.004C186.742 308.393 151.41 311.806 117.831 303.692C84.2522 295.579 54.3763 276.411 33.0054 249.27C11.6345 222.128 0.00993057 188.589 6.35486e-06 154.044C-0.00991786 119.499 11.5954 85.9536 32.9507 58.7999C54.306 31.6461 84.1709 12.4611 117.745 4.3284C151.319 -3.80428 186.653 -0.412254 218.067 13.9593C249.481 28.3308 275.151 52.8471 290.95 83.5677L249.303 104.986C238.309 83.6078 220.445 66.5469 198.584 56.5458C176.723 46.5446 152.135 44.1841 128.77 49.8436C105.406 55.5032 84.623 68.854 69.7619 87.7503C54.9008 106.647 46.8246 129.991 46.8315 154.031C46.8384 178.071 54.928 201.41 69.8 220.298C84.6719 239.186 105.463 252.525 128.83 258.171C152.198 263.817 176.785 261.442 198.64 251.429C220.495 241.415 238.349 224.344 249.332 202.959L290.99 224.354Z" fill="#FF4588"/>
</svg>
