<svg width="80" height="80" viewBox="0 0 80 80" fill="none" xmlns="http://www.w3.org/2000/svg">
<mask id="mask0_825_1106" style="mask-type:alpha" maskUnits="userSpaceOnUse" x="0" y="0" width="80" height="80">
<rect width="80" height="80" fill="#D9D9D9"/>
</mask>
<g mask="url(#mask0_825_1106)">
<path d="M3.33333 81.3136C2.38889 81.3136 1.59722 80.9134 0.958333 80.113C0.319444 79.3126 0 78.3207 0 77.1375V74.7362C0 71.7433 1.22222 69.3072 3.66667 67.428C6.11111 65.5487 9.33333 64.6091 13.3333 64.6091C14.0556 64.6091 14.75 64.6265 15.4167 64.6613C16.0833 64.6961 16.7222 64.7831 17.3333 64.9223C16.5556 66.3839 15.9722 67.9152 15.5833 69.516C15.1944 71.1169 15 72.7873 15 74.5274V81.3136H3.33333ZM23.3333 81.3136C22.3889 81.3136 21.5972 80.9134 20.9583 80.113C20.3194 79.3126 20 78.3207 20 77.1375V74.5274C20 72.3001 20.4861 70.2643 21.4583 68.4198C22.4306 66.5753 23.8056 64.9571 25.5833 63.565C27.3611 62.173 29.4861 61.129 31.9583 60.4329C34.4306 59.7369 37.1111 59.3889 40 59.3889C42.9444 59.3889 45.6528 59.7369 48.125 60.4329C50.5972 61.129 52.7222 62.173 54.5 63.565C56.2778 64.9571 57.6389 66.5753 58.5833 68.4198C59.5278 70.2643 60 72.3001 60 74.5274V77.1375C60 78.3207 59.6806 79.3126 59.0417 80.113C58.4028 80.9134 57.6111 81.3136 56.6667 81.3136H23.3333ZM65 81.3136V74.5274C65 72.7177 64.8194 71.0125 64.4583 69.4116C64.0972 67.8108 63.5556 66.3143 62.8333 64.9223C63.4444 64.7831 64.0694 64.6961 64.7083 64.6613C65.3472 64.6265 66 64.6091 66.6667 64.6091C70.6667 64.6091 73.8889 65.5313 76.3333 67.3758C78.7778 69.2202 80 71.6737 80 74.7362V77.1375C80 78.3207 79.6805 79.3126 79.0417 80.113C78.4028 80.9134 77.6111 81.3136 76.6667 81.3136H65ZM27.0833 72.9614H53C52.4444 71.5693 50.9028 70.3513 48.375 69.3072C45.8472 68.2632 43.0556 67.7412 40 67.7412C36.9444 67.7412 34.1528 68.2632 31.625 69.3072C29.0972 70.3513 27.5833 71.5693 27.0833 72.9614ZM13.3333 60.4329C11.5 60.4329 9.93056 59.6151 8.625 57.9795C7.31944 56.3438 6.66667 54.3775 6.66667 52.0807C6.66667 49.7142 7.31944 47.7305 8.625 46.1297C9.93056 44.5288 11.5 43.7284 13.3333 43.7284C15.2222 43.7284 16.8056 44.5288 18.0833 46.1297C19.3611 47.7305 20 49.7142 20 52.0807C20 54.3775 19.3611 56.3438 18.0833 57.9795C16.8056 59.6151 15.2222 60.4329 13.3333 60.4329ZM66.6667 60.4329C64.8333 60.4329 63.2639 59.6151 61.9583 57.9795C60.6528 56.3438 60 54.3775 60 52.0807C60 49.7142 60.6528 47.7305 61.9583 46.1297C63.2639 44.5288 64.8333 43.7284 66.6667 43.7284C68.5556 43.7284 70.1389 44.5288 71.4167 46.1297C72.6944 47.7305 73.3333 49.7142 73.3333 52.0807C73.3333 54.3775 72.6944 56.3438 71.4167 57.9795C70.1389 59.6151 68.5556 60.4329 66.6667 60.4329ZM40 56.2568C37.2222 56.2568 34.8611 55.0388 32.9167 52.6027C30.9722 50.1666 30 47.2085 30 43.7284C30 40.1787 30.9722 37.2032 32.9167 34.8019C34.8611 32.4006 37.2222 31.2 40 31.2C42.8333 31.2 45.2083 32.4006 47.125 34.8019C49.0417 37.2032 50 40.1787 50 43.7284C50 47.2085 49.0417 50.1666 47.125 52.6027C45.2083 55.0388 42.8333 56.2568 40 56.2568ZM40 47.9045C40.9444 47.9045 41.7361 47.5043 42.375 46.7039C43.0139 45.9034 43.3333 44.9116 43.3333 43.7284C43.3333 42.5451 43.0139 41.5533 42.375 40.7529C41.7361 39.9524 40.9444 39.5522 40 39.5522C39.0556 39.5522 38.2639 39.9524 37.625 40.7529C36.9861 41.5533 36.6667 42.5451 36.6667 43.7284C36.6667 44.9116 36.9861 45.9034 37.625 46.7039C38.2639 47.5043 39.0556 47.9045 40 47.9045Z" fill="#FAFAFA"/>
</g>
</svg>
