<svg width="80" height="80" viewBox="0 0 80 80" fill="none" xmlns="http://www.w3.org/2000/svg">
<mask id="mask0_825_1103" style="mask-type:alpha" maskUnits="userSpaceOnUse" x="0" y="0" width="80" height="80">
<rect width="80" height="80" fill="#D9D9D9"/>
</mask>
<g mask="url(#mask0_825_1103)">
<path d="M43.0666 56.1613H33.0666C32.1221 56.1613 31.3305 56.5615 30.6916 57.362C30.0527 58.1624 29.7332 59.1542 29.7332 60.3375C29.7332 61.5207 30.0527 62.5125 30.6916 63.313C31.3305 64.1134 32.1221 64.5136 33.0666 64.5136H36.3999C36.3999 65.6968 36.7193 66.6887 37.3582 67.4891C37.9971 68.2895 38.7888 68.6897 39.7332 68.6897C40.6777 68.6897 41.4693 68.2895 42.1082 67.4891C42.7471 66.6887 43.0666 65.6968 43.0666 64.5136H46.3999C47.3443 64.5136 48.136 64.1134 48.7749 63.313C49.4138 62.5125 49.7332 61.5207 49.7332 60.3375V47.809C49.7332 46.6258 49.4138 45.634 48.7749 44.8335C48.136 44.0331 47.3443 43.6329 46.3999 43.6329H36.3999V39.4567H46.3999C47.3443 39.4567 48.136 39.0565 48.7749 38.2561C49.4138 37.4557 49.7332 36.4638 49.7332 35.2806C49.7332 34.0974 49.4138 33.1055 48.7749 32.3051C48.136 31.5047 47.3443 31.1045 46.3999 31.1045H43.0666C43.0666 29.9212 42.7471 28.9294 42.1082 28.129C41.4693 27.3285 40.6777 26.9283 39.7332 26.9283C38.7888 26.9283 37.9971 27.3285 37.3582 28.129C36.7193 28.9294 36.3999 29.9212 36.3999 31.1045H33.0666C32.1221 31.1045 31.3305 31.5047 30.6916 32.3051C30.0527 33.1055 29.7332 34.0974 29.7332 35.2806V47.809C29.7332 48.9923 30.0527 49.9841 30.6916 50.7845C31.3305 51.585 32.1221 51.9852 33.0666 51.9852H43.0666V56.1613ZM13.0666 81.2182C11.2332 81.2182 9.66379 80.4003 8.35824 78.7647C7.05268 77.129 6.3999 75.1628 6.3999 72.8659V22.7522C6.3999 20.4553 7.05268 18.489 8.35824 16.8534C9.66379 15.2177 11.2332 14.3999 13.0666 14.3999H66.3999C68.2332 14.3999 69.8027 15.2177 71.1082 16.8534C72.4138 18.489 73.0666 20.4553 73.0666 22.7522V72.8659C73.0666 75.1628 72.4138 77.129 71.1082 78.7647C69.8027 80.4003 68.2332 81.2182 66.3999 81.2182H13.0666ZM13.0666 72.8659H66.3999V22.7522H13.0666V72.8659Z" fill="#FAFAFA"/>
</g>
</svg>
