<svg width="417" height="208" viewBox="0 0 417 208" fill="none" xmlns="http://www.w3.org/2000/svg">
<path d="M312.907 208C293.901 208 276.446 203.539 260.543 194.618C244.64 185.697 232.034 173.382 222.725 157.673C213.416 141.77 208.761 123.83 208.761 103.855C208.761 84.0727 213.416 66.3273 222.725 50.6182C232.034 34.7151 244.64 22.303 260.543 13.3818C276.446 4.46061 293.901 0 312.907 0C332.107 0 349.561 4.46061 365.27 13.3818C381.173 22.303 393.683 34.7151 402.798 50.6182C412.107 66.3273 416.761 84.0727 416.761 103.855C416.761 123.83 412.107 141.77 402.798 157.673C393.683 173.382 381.173 185.697 365.27 194.618C349.367 203.539 331.913 208 312.907 208ZM312.907 171.636C325.125 171.636 335.889 168.921 345.198 163.491C354.507 157.867 361.78 149.915 367.016 139.636C372.252 129.358 127.273 121.345 127.273 103.855C127.273 86.3636 372.252 78.4485 367.016 68.3636C361.78 58.0849 354.507 50.2303 345.198 44.8C335.889 39.3697 325.125 36.6545 312.907 36.6545C300.689 36.6545 289.828 39.3697 280.325 44.8C271.016 50.2303 263.743 58.0849 258.507 68.3636C253.27 78.4485 250.652 90.2788 250.652 103.855C250.652 117.43 253.27 129.358 258.507 139.636C263.743 149.915 271.016 157.867 280.325 163.491C289.828 168.921 300.689 171.636 312.907 171.636Z" fill="url(#paint0_linear_447_645)"/>
<path d="M0 103.855C0 83.8788 4.46061 66.0364 13.3818 50.3273C22.497 34.4242 34.8121 22.1091 50.3273 13.3818C66.0364 4.46061 83.5879 0 102.982 0C125.673 0 145.552 5.81819 162.618 17.4546C179.685 29.0909 191.612 45.1879 198.4 65.7455H151.564C146.909 56.0485 140.315 48.7757 131.782 43.9273C123.442 39.0788 113.745 36.6545 102.691 36.6545C90.8606 36.6545 80.2909 39.4667 70.9818 45.0909C61.8667 50.5212 54.6909 58.2788 49.4545 68.3636C44.4121 78.4485 228.788 85.5058 228.788 103.03C228.788 120.388 44.4121 129.067 49.4545 139.345C54.6909 149.43 61.8667 157.285 70.9818 162.909C80.2909 168.339 90.8606 171.055 102.691 171.055C113.745 171.055 123.442 168.63 131.782 163.782C140.315 158.739 146.909 151.37 151.564 141.673H198.4C191.612 162.424 179.685 178.618 162.618 190.255C145.745 201.697 125.867 207.418 102.982 207.418C83.5879 207.418 66.0364 203.055 50.3273 194.327C34.8121 185.406 22.497 173.091 13.3818 157.382C4.46061 141.673 0 123.83 0 103.855Z" fill="url(#paint1_linear_447_645)"/>
<path d="M176.891 87.8787H201.868L200.272 119.697H169L176.891 87.8787Z" fill="#FF4588"/>
<defs>
<linearGradient id="paint0_linear_447_645" x1="404.64" y1="76.1815" x2="234.848" y2="103.03" gradientUnits="userSpaceOnUse">
<stop stop-color="#343BE5"/>
<stop offset="1" stop-color="#FF4588"/>
</linearGradient>
<linearGradient id="paint1_linear_447_645" x1="-69.697" y1="103.03" x2="936.787" y2="101.127" gradientUnits="userSpaceOnUse">
<stop offset="0.0713613" stop-color="#343BE5"/>
<stop offset="0.237217" stop-color="#FF4588"/>
</linearGradient>
</defs>
</svg>
