<svg width="80" height="80" viewBox="0 0 80 80" fill="none" xmlns="http://www.w3.org/2000/svg">
<mask id="mask0_825_1097" style="mask-type:alpha" maskUnits="userSpaceOnUse" x="0" y="0" width="80" height="80">
<rect width="80" height="80" fill="#D9D9D9"/>
</mask>
<g mask="url(#mask0_825_1097)">
<path d="M61.1499 81.8945C60.2055 81.8945 59.4138 81.4943 58.7749 80.6939C58.136 79.8934 57.8166 78.9016 57.8166 77.7184C57.8166 77.1615 57.8999 76.6047 58.0666 76.0479C58.2332 75.4911 58.4555 75.0387 58.7332 74.6907C61.1221 71.6978 62.9971 68.2524 64.3582 64.3547C65.7194 60.457 66.3999 56.2112 66.3999 51.6175C66.3999 47.0933 65.7194 42.865 64.3582 38.9325C62.9971 34.9999 61.1221 31.5372 58.7332 28.5443C58.4555 28.1963 58.2332 27.7439 58.0666 27.1871C57.8999 26.6303 57.8166 26.0734 57.8166 25.5166C57.8166 24.3334 58.136 23.3415 58.7749 22.5411C59.4138 21.7407 60.2055 21.3405 61.1499 21.3405C61.5944 21.3405 62.0249 21.4623 62.4416 21.7059C62.8582 21.9495 63.2055 22.2453 63.4832 22.5933C66.4832 26.3518 68.8305 30.7194 70.5249 35.696C72.2194 40.6725 73.0666 45.9797 73.0666 51.6175C73.0666 57.3249 72.2194 62.6495 70.5249 67.5912C68.8305 72.533 66.4832 76.8831 63.4832 80.6417C63.2055 80.9897 62.8582 81.2855 62.4416 81.5291C62.0249 81.7727 61.5944 81.8945 61.1499 81.8945ZM51.6499 69.9925C50.7055 69.9925 49.9138 69.5923 49.2749 68.7919C48.636 67.9914 48.3166 66.9996 48.3166 65.8164C48.3166 65.2596 48.4138 64.7201 48.6082 64.1981C48.8027 63.6761 49.0388 63.2411 49.3166 62.8931C50.4832 61.4314 51.3999 59.7436 52.0666 57.8295C52.7332 55.9154 53.0666 53.8448 53.0666 51.6175C53.0666 49.3902 52.7193 47.3195 52.0249 45.4055C51.3305 43.4914 50.4277 41.8036 49.3166 40.3419C48.9832 39.9939 48.7332 39.5589 48.5666 39.0369C48.3999 38.5149 48.3166 37.9754 48.3166 37.4186C48.3166 36.2354 48.636 35.2435 49.2749 34.4431C49.9138 33.6427 50.7055 33.2425 51.6499 33.2425C52.0943 33.2425 52.5388 33.3469 52.9832 33.5557C53.4277 33.7645 53.7888 34.0777 54.0666 34.4953C55.8443 36.7226 57.2332 39.2979 58.2332 42.2212C59.2332 45.1445 59.7332 48.2766 59.7332 51.6175C59.7332 54.9584 59.2332 58.0905 58.2332 61.0138C57.2332 63.9371 55.8443 66.5124 54.0666 68.7397C53.7888 69.1573 53.4277 69.4705 52.9832 69.6793C52.5388 69.8881 52.0943 69.9925 51.6499 69.9925ZM6.3999 80.6417V72.2894C8.95546 72.2894 11.4832 72.0806 13.9832 71.663C16.4832 71.2454 18.9277 70.4797 21.3166 69.3661C18.761 67.7652 16.7471 65.451 15.2749 62.4233C13.8027 59.3955 13.0666 56.1068 13.0666 52.5571V43.0564H26.3999V30.528H37.6499L28.2332 6.93279C27.7888 5.88875 27.7193 4.82732 28.0249 3.74848C28.3305 2.66965 28.8999 1.85182 29.7332 1.295C30.5666 0.73818 31.4138 0.651177 32.2749 1.03399C33.136 1.4168 33.7888 2.13023 34.2332 3.17426L43.6499 26.7695C44.761 29.5535 44.6777 32.268 43.3999 34.9129C42.1221 37.5578 40.2332 38.8803 37.7332 38.8803H33.0666V43.0564C33.0666 45.3533 32.4138 47.3195 31.1082 48.9552C29.8027 50.5909 28.2332 51.4087 26.3999 51.4087H19.7332V52.5571C19.7332 54.9932 20.3305 57.1335 21.5249 58.9779C22.7193 60.8224 24.2332 62.0578 26.0666 62.6843L27.0666 62.9975C29.2888 63.6935 30.5388 65.4336 30.8166 68.2176C31.0943 71.0017 30.2332 73.0898 28.2332 74.4819C24.8999 76.7787 21.386 78.3796 17.6916 79.2844C13.9971 80.1892 10.2332 80.6417 6.3999 80.6417Z" fill="#FAFAFA"/>
</g>
</svg>
